{"title":"The.Independents.After.Show.2014.11.10.WS.WEB-DL.x264-XAiO","uid":11437449,"size":79245282,"categoryP":"video","categoryS":"tv_shows","magnet":"?xt=urn:btih:a2c8e07917c3381fc076be9a27d4a57bdd200235&amp;dn=The.Independents.After.Show.2014.11.10.WS.WEB-DL.x264-XAiO&amp;tr=udp%3A%2F%2Ftracker.openbittorrent.com%3A80&amp;tr=udp%3A%2F%2Fopen.demonii.com%3A1337&amp;tr=udp%3A%2F%2Ftracker.coppersurfer.tk%3A6969&amp;tr=udp%3A%2F%2Fexodus.desync.com%3A6969","seeders":0,"leechers":0,"uploader":"Reive","files":-1,"time":1415764560,"description":"Good copy. Some pixelation problems but definitely watchable. Same panel. Capped this 3 times so I haven't actually watched this 100%. Skimmed through it though, all looks well.\n\nINFO\n----\nSD. widescreen. Recorded with Replay Video Catcher from FoxBusiness.com. Converted with AviDemux using Mpeg4 AVC (x264) &amp; AAC (Faac). Video was a two pass encode with the file size limited to 50MB. Resized to 720x404 &amp; cropped.\n\nGeneral \nComplete name : The.Independents.After.Show.2014.11.10.WS.WEB-DL.x264-XAiO.mp4 \nFormat : MPEG-4 \nFormat profile : Base Media \nCodec ID : isom \nFile size : 75.6 MiB \nDuration : 12mn 53s \nOverall bit rate mode : Variable \nOverall bit rate : 820 Kbps \nWriting application : Lavf54.63.104 \n\nVideo \nID : 1 \nFormat : AVC \nFormat/Info : Advanced Video Codec \nFormat profile : &lt;a class=&quot;__cf_email__&quot; href=&quot;/cdn-cgi/l/email-protection&quot; data-cfemail=&quot;a4eccdc3cce4e8978a94&quot;&gt;[email&amp;#160;protected]&lt;/a&gt;&lt;script cf-hash='f9e31' type=&quot;text/javascript&quot;&gt;\n/* &lt;![CDATA[ */!function(){try{var t=&quot;currentScript&quot;in document?document.currentScript:function(){for(var t=document.getElementsByTagName(&quot;script&quot;),e=t.length;e--;)if(t[e].getAttribute(&quot;cf-hash&quot;))return t[e]}();if(t&amp;&amp;t.previousSibling){var e,r,n,i,c=t.previousSibling,a=c.getAttribute(&quot;data-cfemail&quot;);if(a){for(e=&quot;&quot;,r=parseInt(a.substr(0,2),16),n=2;a.length-n;n+=2)i=parseInt(a.substr(n,2),16)^r,e+=String.fromCharCode(i);e=document.createTextNode(e),c.parentNode.replaceChild(e,c)}}}catch(u){}}();/* ]]&gt; */&lt;/script&gt; \nFormat settings, CABAC : Yes \nFormat settings, ReFrames : 4 frames \nCodec ID : avc1 \nCodec ID/Info : Advanced Video Coding \nDuration : 12mn 53s \nBit rate : 683 Kbps \nWidth : 720 pixels \nHeight : 404 pixels \nDisplay aspect ratio : 16:9 \nFrame rate mode : Variable \nFrame rate : 29.970 fps \nMinimum frame rate : 14.985 fps \nMaximum frame rate : 29.970 fps \nColor space : YUV \nChroma subsampling : 4:2:0 \nBit depth : 8 bits \nScan type : Progressive \nBits/(Pixel*Frame) : 0.078 \nStream size : 62.9 MiB (83%) \nWriting library : x264 core 123 r2189 35cf912 \nEncoding settings : cabac=1 / ref=3 / deblock=1:0:0 / analyse=0x3:0x133 / me=hex / subme=7 / psy=1 / psy_rd=1.00:0.00 / mixed_ref=1 / me_range=16 / chroma_me=1 / trellis=1 / 8x8dct=1 / cqm=0 / deadzone=21,11 / fast_pskip=1 / chroma_qp_offset=-2 / threads=6 / sliced_threads=0 / nr=0 / decimate=1 / interlaced=0 / bluray_compat=0 / constrained_intra=0 / bframes=3 / b_pyramid=2 / b_adapt=1 / b_bias=0 / direct=1 / weightb=1 / open_gop=0 / weightp=2 / keyint=250 / keyint_min=25 / scenecut=40 / intra_refresh=0 / rc_lookahead=40 / rc=2pass / mbtree=1 / bitrate=683 / ratetol=1.0 / qcomp=0.60 / qpmin=10 / qpmax=51 / qpstep=4 / cplxblur=20.0 / qblur=0.5 / ip_ratio=1.40 / aq=1:1.00 \n\nAudio \nID : 2 \nFormat : AAC \nFormat/Info : Advanced Audio Codec \nFormat profile : LC \nCodec ID : 40 \nDuration : 12mn 53s \nBit rate mode : Variable \nBit rate : 127 Kbps \nMaximum bit rate : 128 Kbps \nChannel(s) : 2 channels \nChannel positions : Front: L R \nSampling rate : 48.0 KHz \nCompression mode : Lossy \nStream size : 11.7 MiB (15%) \nLanguage : unk","torrent":{"xt":"urn:btih:a2c8e07917c3381fc076be9a27d4a57bdd200235","amp;dn":"The.Independents.After.Show.2014.11.10.WS.WEB-DL.x264-XAiO","amp;tr":["udp%3A%2F%2Ftracker.openbittorrent.com%3A80","udp%3A%2F%2Fopen.demonii.com%3A1337","udp%3A%2F%2Ftracker.coppersurfer.tk%3A6969","udp%3A%2F%2Fexodus.desync.com%3A6969"],"infoHash":"a2c8e07917c3381fc076be9a27d4a57bdd200235","infoHashBuffer":{"type":"Buffer","data":[162,200,224,121,23,195,56,31,192,118,190,154,39,212,165,123,221,32,2,53]},"announce":[],"urlList":[]}}